<svg width="29" height="37" viewBox="0 0 29 37" fill="none" xmlns="http://www.w3.org/2000/svg">
<path d="M17.712 20.3704C17.1757 19.6396 16.3898 19.1311 15.5034 18.9413V15.5388C16.0776 15.602 16.6549 15.6332 17.2326 15.6324C19.6153 15.6324 23.1321 15.1127 25.7759 12.4624C29.2252 9.01312 29.0719 4.0776 28.8458 2.11716C28.8142 1.80425 28.6756 1.51184 28.4533 1.28933C28.2311 1.06683 27.9388 0.927871 27.6259 0.895947C25.6642 0.669892 20.7299 0.516591 17.2807 3.96587C16.0699 5.19412 15.1833 6.70394 14.7005 8.35964C14.2166 6.70354 13.3286 5.1937 12.1165 3.96587C8.66722 0.516591 3.73299 0.669892 1.77126 0.895947C1.45838 0.927871 1.16611 1.06683 0.943845 1.28933C0.721576 1.51184 0.582934 1.80425 0.551342 2.11716C0.325288 4.0776 0.171987 9.01312 3.62127 12.4624C6.26506 15.1062 9.7819 15.6324 12.1646 15.6324C12.7418 15.6326 13.3186 15.6013 13.8925 15.5388V18.9387C13.0049 19.1312 12.2189 19.643 11.6839 20.3769L0.561736 35.8681C0.498787 35.9555 0.461205 36.0586 0.453138 36.166C0.44507 36.2734 0.46683 36.381 0.516016 36.4768C0.565203 36.5726 0.639905 36.653 0.731878 36.709C0.823852 36.7651 0.929523 36.7946 1.03723 36.7944H28.3638C28.4715 36.7946 28.5772 36.7651 28.6692 36.709C28.7612 36.653 28.8359 36.5726 28.885 36.4768C28.9342 36.381 28.956 36.2734 28.9479 36.166C28.9399 36.0586 28.9023 35.9555 28.8393 35.8681L17.712 20.3704ZM23.2477 5.34039C23.4016 5.19154 23.6082 5.1099 23.8223 5.11343C24.0363 5.11696 24.2402 5.20538 24.389 5.35922C24.5379 5.51307 24.6195 5.71975 24.616 5.93378C24.6125 6.14782 24.524 6.35169 24.3702 6.50054L15.5073 15.0672V12.8184L23.2477 5.34039ZM5.02956 6.50054C4.87571 6.35169 4.7873 6.14782 4.78376 5.93378C4.78023 5.71975 4.86187 5.51307 5.01072 5.35922C5.15957 5.20538 5.36344 5.11696 5.57748 5.11343C5.79151 5.1099 5.99819 5.19154 6.15204 5.34039L13.8925 12.8184V15.0633L5.02956 6.50054Z" fill="#F25C05"/>
</svg>
